<svg viewBox="0 0 69 40" fill="none" xmlns="http://www.w3.org/2000/svg">
    <path d="M2.38171 8.91296L2.38003 17.1672C2.38003 17.8148 1.9682 18.3896 1.35761 18.5953C1.00389 18.7146 0.766393 19.0473 0.766393 19.4223C0.766393 19.904 1.15464 20.2942 1.63385 20.2942H3.89007H5.51045H7.76667C8.24588 20.2942 8.63413 19.904 8.63413 19.4223C8.63413 19.0473 8.39579 18.7146 8.04207 18.5953C7.43148 18.3896 7.01965 17.8148 7.01965 17.1672L7.01797 8.93412C8.47496 8.94005 9.7315 8.94513 10.2638 8.94513C11.4984 8.94513 11.938 9.83396 11.9995 10.7787L11.9928 10.7795L11.9911 17.1681C11.9911 17.8157 11.5793 18.3904 10.9687 18.5961C10.615 18.7155 10.3766 19.0482 10.3766 19.4232C10.3766 19.9048 10.7649 20.2951 11.2441 20.2951H13.5003H15.1207H17.3769C17.8561 20.2951 18.2444 19.9048 18.2444 19.4232C18.2444 19.0482 18.006 18.7155 17.6523 18.5961C17.0417 18.3904 16.6299 17.8157 16.6299 17.1681L16.6282 11.2307C16.9634 10.6525 17.6708 9.57239 18.2856 9.57239C19.0133 9.57239 18.6276 11.7183 20.6463 11.7183C21.6527 11.7183 22.7214 11.1029 23.0103 9.87713C23.6495 9.3159 24.8059 8.59806 26.55 8.59806C27.639 8.59806 28.3767 9.30912 28.3927 10.7431C28.3927 10.749 28.3927 10.755 28.3927 10.7617C28.3927 10.7617 28.386 11.863 28.381 12.1017C28.381 12.1017 28.1712 12.1068 27.911 12.1212C26.2098 12.216 20.3035 12.8365 20.3035 16.8811C20.3035 18.9339 21.9155 20.4441 24.9945 20.4441C27.1724 20.4441 28.4197 19.2437 28.9461 18.575C29.4766 19.5696 30.4957 20.4441 32.4285 20.4441C34.358 20.4441 35.6651 19.5163 36.5056 18.5504V18.7832C36.5056 19.6187 37.1793 20.2959 38.0106 20.2959H41.8871C42.3664 20.2959 42.7546 19.9057 42.7546 19.424C42.7546 19.049 42.5163 18.7163 42.1625 18.597C41.552 18.3913 41.1401 17.8165 41.1401 17.1689L41.1368 11.2036C41.4719 10.5416 42.1844 9.45049 43.2439 9.45049C44.7337 9.45049 45.1835 10.7067 45.1835 11.6997C45.1835 11.6997 45.181 15.0188 45.181 16.2048C45.181 17.3907 45.6054 20.4449 49.2167 20.4449C51.2405 20.4449 52.5804 19.4249 53.4142 18.4091V18.7832C53.4142 19.6187 54.088 20.2959 54.92 20.2959H58.7966C59.2758 20.2959 59.6641 19.9057 59.6641 19.424C59.6641 19.049 59.4258 18.7163 59.072 18.597C58.4614 18.3913 58.0496 17.8165 58.0496 17.1689L58.053 15.2465C58.464 15.3921 59.0383 15.5513 59.6632 15.6004C60.001 16.2869 60.5366 17.3662 60.9004 18.0357C61.4655 19.0769 63.283 21.5597 66.362 19.8701C68.0675 18.9347 68.7286 17.4364 68.9627 16.165C69.1994 14.8757 68.2527 14.5803 67.7247 15.4336C67.5394 15.7333 67.2783 16.0101 66.9111 16.2115C65.7691 16.8379 64.9252 16.1091 64.4351 15.2067C64.3062 14.9689 64.1833 14.7428 64.073 14.5371C65.754 13.5196 66.7208 11.9587 66.7208 10.6415C66.7208 8.0182 64.8166 6.89404 62.4863 6.89404C60.321 6.89404 58.8842 8.16719 58.0521 9.25241L58.0496 1.17336C58.0496 0.459759 57.4213 -0.088776 56.7181 0.0119581L52.6074 0.601125C52.1442 0.667152 51.7997 1.0667 51.7997 1.53651C51.7997 1.94284 52.0574 2.30345 52.4406 2.43212C53.0217 2.62766 53.4134 3.17535 53.4134 3.7916L53.4176 16.3334C53.015 16.7897 52.385 17.273 51.5117 17.273C50.2939 17.273 49.8492 16.4079 49.7785 15.4768C49.7785 14.6878 49.7785 11.8698 49.7785 11.7741C49.7785 9.39547 48.1446 6.80939 45.0268 6.80939C43.1328 6.80939 41.8829 8.15111 41.1401 9.36161L41.1393 8.40082C41.1393 7.68722 40.5102 7.13869 39.8078 7.23942L35.6971 7.82859C35.2339 7.89461 34.8894 8.29332 34.8894 8.76398C34.8894 9.1703 35.1479 9.53091 35.5303 9.65958C36.1114 9.85512 36.503 10.4028 36.503 11.0191L36.5064 16.4638C36.103 16.8769 35.5126 17.273 34.7218 17.273C33.5124 17.273 33.0661 16.4198 32.9903 15.4971L32.9945 12.0637L32.9869 12.0586C32.9658 8.48801 30.5176 6.89489 27.0014 6.89489C25.0871 6.89489 23.6857 7.60088 22.852 8.18412C22.4612 7.40364 21.6257 6.89489 20.6219 6.89489C18.7177 6.89489 17.2708 8.33988 16.373 9.5944C15.9553 8.31448 14.9076 6.89489 12.445 6.89489H6.99439C6.99439 5.73518 6.99439 4.71853 6.99439 4.01847C7.03818 3.27947 7.18388 2.19848 7.65972 2.19848C8.30989 2.19848 7.78773 4.82519 9.80646 4.82519C10.983 4.82519 12.2488 3.9863 12.2488 2.31022C12.2488 1.02522 11.2542 0.0652875 9.92942 0.000953146H8.48506C3.89765 0.000953146 2.34971 3.76536 2.34971 6.03484C2.34971 6.2634 2.34971 6.55629 2.34971 6.89574H0.885142C0.395829 6.89574 0 7.29444 0 7.78541V8.0182C0 8.50833 0.391618 8.90534 0.879246 8.90788C1.27929 8.90788 1.79639 8.91042 2.38171 8.91296ZM28.3961 16.2031V17.0657C28.3961 17.0657 27.8234 18.3837 26.4549 18.3837C25.0863 18.3837 24.7587 17.3018 24.7587 16.4612C24.7587 15.2152 25.659 13.6779 27.8276 13.3732C28.1283 13.3309 28.3961 13.3216 28.3961 13.3216C28.3961 14.4559 28.3961 15.6562 28.3961 16.2031ZM60.9771 9.13813C61.7687 9.13813 62.2766 9.84496 62.2766 11.0123C62.2766 12.6765 60.6831 14.1224 59.2245 14.1224C58.7604 14.1224 58.3494 13.9514 58.053 13.7787C58.1962 11.3754 59.3996 9.13813 60.9771 9.13813Z"
          fill="currentColor"/>
    <path d="M38.9341 27.685C37.8536 27.685 37.0695 28.4985 36.5903 29.2121V28.4925C36.5903 28.0837 36.2307 27.7705 35.8282 27.828L33.4751 28.1649C33.2098 28.203 33.0127 28.4316 33.0127 28.7008C33.0127 28.9336 33.1601 29.1401 33.3799 29.2138C33.7126 29.3263 33.9366 29.6396 33.9366 29.9917L33.9374 31.2623C33.6048 31.7973 32.4788 33.3523 30.5409 33.5318C29.4949 33.6283 28.6729 33.3506 28.2459 32.2908C29.5665 32.5922 32.4046 31.672 32.4072 29.8249C32.4089 28.1632 30.6462 27.525 28.8102 27.6714C26.9742 27.8179 25.0557 29.3898 25.289 31.9395C25.3353 32.4415 25.4591 32.8884 25.6435 33.2838C25.4212 33.4717 25.1256 33.6274 24.7508 33.6274C24.0535 33.6274 23.7992 33.1322 23.7587 32.5989C23.7587 32.1469 23.7587 30.5343 23.7587 30.4793C23.7587 29.1173 22.8231 27.6367 21.0385 27.6367C19.9537 27.6367 19.2387 28.4053 18.8134 29.0978V28.5476C18.8134 28.1387 18.4538 27.8255 18.0512 27.8831L15.6981 28.22C15.4328 28.2581 15.2358 28.4866 15.2358 28.7558C15.2358 28.9886 15.3832 29.1951 15.603 29.2688C15.9356 29.3814 16.1597 29.6946 16.1597 30.0467L16.1605 31.1971C15.8868 31.6559 14.749 33.3447 12.7244 33.5318C11.6784 33.6283 10.8564 33.3506 10.4294 32.2908C11.7499 32.5922 14.5881 31.672 14.5907 29.8249C14.5923 28.1632 12.8296 27.525 10.9937 27.6714C9.15769 27.8179 7.23918 29.3898 7.47247 31.9395C7.70575 34.4892 9.9384 35.654 12.0287 35.461C14.3666 35.2451 15.6956 33.2719 16.1613 32.4288L16.163 34.4917C16.163 34.97 16.5487 35.3577 17.0246 35.3577H19.2438C19.5183 35.3577 19.7406 35.1342 19.7406 34.8583C19.7406 34.6432 19.6042 34.4528 19.4021 34.3851C19.0526 34.2674 18.8168 33.9381 18.8168 33.5673L18.8151 30.1525C19.0071 29.7733 19.4147 29.1486 20.0211 29.1486C20.8742 29.1486 21.1311 29.8673 21.1311 30.4361C21.1311 30.4361 21.1294 32.3365 21.1294 33.0154C21.1294 33.6943 21.372 35.4432 23.4395 35.4432C24.8022 35.4432 25.6233 34.6356 26.0672 33.9745C26.9481 35.0987 28.4287 35.5922 29.8444 35.461C32.12 35.251 33.4389 33.3777 33.9374 32.4999L33.9391 34.4917C33.9391 34.97 34.3248 35.3577 34.8007 35.3577H37.0198C37.2944 35.3577 37.5167 35.1342 37.5167 34.8583C37.5167 34.6432 37.3803 34.4528 37.1782 34.3851C36.8287 34.2674 36.5929 33.9381 36.5929 33.5673L36.5912 30.271C36.7453 29.9908 37.2051 29.2188 37.5984 29.2188C38.0153 29.2188 37.7938 30.4471 38.9501 30.4471C39.6239 30.4471 40.3482 29.9663 40.3482 29.0072C40.3482 28.2445 39.7334 27.685 38.9341 27.685ZM11.1983 28.4815C11.7963 28.4807 12.1331 29.0563 12.1028 29.7589C12.0531 30.8856 11.0021 31.5721 10.1986 31.4299C10.1751 31.2868 10.1557 31.1353 10.1405 30.9745C9.9645 29.0521 10.6846 28.4824 11.1983 28.4815ZM29.0157 28.4815C29.6136 28.4807 29.9505 29.0563 29.9202 29.7589C29.8705 30.8856 28.8186 31.5721 28.016 31.4299C27.9924 31.2868 27.973 31.1353 27.9579 30.9745C27.7819 29.0521 28.5011 28.4824 29.0157 28.4815Z"
          fill="currentColor"/>
    <path d="M44.5103 35.0165C43.5595 35.0165 43.3371 34.6161 43.3371 34.2513C43.3371 34.0642 43.4289 33.8848 43.5578 33.7248C43.9006 33.8018 44.2619 33.8433 44.6358 33.8433C46.8247 33.8433 48.5992 32.4347 48.5992 30.6968C48.5992 29.8723 48.2 29.1232 47.5464 28.5619C47.9212 27.8686 48.7794 26.3678 49.1971 26.3678C49.3428 26.3678 49.4194 26.466 49.4969 26.6023C49.5399 26.7013 49.5946 26.7953 49.6569 26.8825C49.7218 26.9824 49.8043 27.0822 49.9197 27.1677C50.1842 27.3895 50.5244 27.5224 50.8958 27.5224C51.7388 27.5224 52.4227 26.8351 52.4227 25.9877C52.4227 25.9801 52.4218 25.9725 52.4218 25.9649C52.4218 25.9598 52.4227 25.9547 52.4227 25.9488C52.4227 25.9073 52.4193 25.865 52.4134 25.8209C52.3309 25.0515 51.6832 24.4521 50.8958 24.4521C50.8924 24.4521 50.8891 24.453 50.8857 24.453C50.8832 24.453 50.8798 24.4521 50.8773 24.4521C49.1314 24.4521 47.5077 27.0399 46.9072 28.1184C46.2638 27.7603 45.4814 27.5495 44.6358 27.5495C42.447 27.5495 40.6725 28.9581 40.6725 30.696C40.6725 31.6466 41.2039 32.4982 42.0435 33.0746C41.4768 33.3515 40.7878 33.8331 40.7878 34.5374C40.7878 35.6988 41.9046 36.0865 44.3823 36.0865C45.1302 36.0865 46.1661 36.4886 46.1661 37.4663C46.1661 38.1317 45.7871 39.0535 44.5566 39.0535C43.3868 39.0535 42.9076 38.1139 42.6988 37.7372C42.1825 36.8052 40.5537 36.8695 40.5537 37.887C40.5537 39.2406 42.2465 39.9999 44.4303 39.9999C46.5644 39.9999 48.9301 39.1974 48.9301 37.3842C48.9293 34.8074 45.4611 35.0165 44.5103 35.0165ZM44.6366 28.512C45.841 28.512 45.7812 30.6968 45.7812 30.6968C45.7812 30.6968 45.937 32.7885 44.6366 32.7885C43.3355 32.7885 43.4921 30.6968 43.4921 30.6968C43.4921 30.6968 43.4323 28.512 44.6366 28.512Z"
          fill="currentColor"/>
    <path d="M61.4741 33.2803L61.4396 33.243C61.3444 33.1389 61.1852 33.1169 61.0673 33.1948C60.8509 33.3387 60.413 33.5325 59.6002 33.5655C58.8339 33.5968 57.6219 33.1169 57.2488 32.2314C58.3176 32.5743 61.5668 31.7074 61.4893 29.7816C61.4219 28.1081 59.5952 27.5807 58.0009 27.6459C56.2315 27.7179 54.1639 29.1654 54.2667 31.7176C54.2886 32.2526 54.398 32.73 54.5749 33.1524C54.3433 33.3937 54.0014 33.6273 53.5415 33.6273C52.8442 33.6273 52.5899 33.1321 52.5494 32.5988C52.5494 32.5463 52.5503 28.7286 52.5503 28.7286C52.5503 28.3197 52.1907 28.0065 51.7881 28.0641L49.435 28.401C49.1697 28.4391 48.9727 28.6676 48.9727 28.9368C48.9727 29.1696 49.1209 29.3762 49.3398 29.4498C49.6725 29.5624 49.8965 29.8756 49.8965 30.2278C49.8965 30.2278 49.8957 32.4888 49.8957 33.0153C49.8957 33.6942 50.1618 35.4431 52.2294 35.4431C53.6923 35.4431 54.5311 34.5119 54.9497 33.8313C55.7481 34.9665 57.1301 35.5209 58.4852 35.4651C60.2159 35.3948 61.2349 34.1361 61.5145 33.6087C61.5727 33.5003 61.5567 33.37 61.4741 33.2803ZM58.0936 28.456C58.5096 28.456 58.8591 28.8344 58.993 29.5235C59.1194 30.1744 58.2822 31.3832 57.0872 31.3832C56.7191 29.8037 57.2303 28.4569 58.0936 28.456Z"
          fill="currentColor"/>
</svg>
